<?xml version="1.0" encoding="US-ASCII" standalone="no"?>
<!DOCTYPE svg PUBLIC "-//W3C//DTD SVG 1.1//EN"
  "http://www.w3.org/Graphics/SVG/1.1/DTD/svg11.dtd">
<svg width="800" height="600" viewBox="0 0 800 600" preserveAspectRatio="xMinYMin meet" xmlns="http://www.w3.org/2000/svg" version="1.1"><g transform="translate(0,0)"><g fill="#800080" fill-opacity="1"><rect width="800" height="600"/></g></g><g transform="translate(0,300)"><g fill="#000000" fill-opacity="1"><rect width="800" height="300"/></g></g><g fill="#ffff00" fill-opacity="1"><g transform="translate(400,150)"><circle r="140"/></g></g><g fill="#800080" fill-opacity="1"><g transform="translate(260,280)"><rect width="280" height="11"/></g><g transform="translate(260,270)"><rect width="280" height="10.5"/></g><g transform="translate(260,260)"><rect width="280" height="10"/></g><g transform="translate(260,250)"><rect width="280" height="9.5"/></g><g transform="translate(260,240)"><rect width="280" height="9"/></g><g transform="translate(260,230)"><rect width="280" height="8.5"/></g><g transform="translate(260,220)"><rect width="280" height="8"/></g><g transform="translate(260,210)"><rect width="280" height="7.5"/></g><g transform="translate(260,200)"><rect width="280" height="7"/></g><g transform="translate(260,190)"><rect width="280" height="6.5"/></g><g transform="translate(260,180)"><rect width="280" height="6"/></g><g transform="translate(260,170)"><rect width="280" height="5.5"/></g><g transform="translate(260,160)"><rect width="280" height="5"/></g><g transform="translate(260,150)"><rect width="280" height="4.5"/></g><g transform="translate(260,140)"><rect width="280" height="4"/></g><g transform="translate(260,130)"><rect width="280" height="3.5"/></g><g transform="translate(260,120)"><rect width="280" height="3"/></g><g transform="translate(260,110)"><rect width="280" height="2.5"/></g><g transform="translate(260,100)"><rect width="280" height="2"/></g><g transform="translate(260,90)"><rect width="280" height="1.5"/></g><g transform="translate(260,80)"><rect width="280" height="1"/></g><g transform="translate(260,70)"><rect width="280" height="0.5"/></g><g transform="translate(260,60)"><rect width="280" height="0"/></g></g><g fill="#00ffff" fill-opacity="1"><g transform="translate(500,301)"><animateTransform attributeName="transform" type="translate" repeatCount="indefinite" begin="0" dur="9" keyTimes="0;0.3333333333333333;0.6111111111111112;0.8333333333333334;1" values="500,301;600,301;700,301;800,301;900,301"/><g transform="scale(0,0)"><animateTransform attributeName="transform" type="scale" repeatCount="indefinite" begin="0" dur="9" keyTimes="0;0.3333333333333333;0.6111111111111112;0.8333333333333334;1" values="0,0;0.5,0.75;0.95,1.5;1.35,2.25;1.7,3"/><polygon points="-50,0 50,0 0,-50"/></g></g></g><g fill="#00ffff" fill-opacity="1"><g transform="translate(300,301)"><animateTransform attributeName="transform" type="translate" repeatCount="indefinite" begin="0" dur="9" keyTimes="0;0.3333333333333333;0.6111111111111112;0.8333333333333334;1" values="300,301;200,301;100,301;0,301;-100,301"/><g transform="scale(0,0)"><animateTransform attributeName="transform" type="scale" repeatCount="indefinite" begin="0" dur="9" keyTimes="0;0.3333333333333333;0.6111111111111112;0.8333333333333334;1" values="0,0;0.5,0.75;0.95,1.5;1.35,2.25;1.7,3"/><polygon points="-50,0 50,0 0,-50"/></g></g></g><g stroke="#ff00ff" stroke-opacity="1" stroke-width="2"><g fill="#000000" fill-opacity="0"><polygon points="0,300 800,300 880,601 700,300 590,300 720,601 560,601 480,300 400,300 400,601 240,601 320,300 210,300 80,601 -80,601 100,300"/></g></g><g stroke="#ff00ff" stroke-opacity="1" stroke-width="2"><g fill="#000000" fill-opacity="0"><g transform="translate(0,300)"><animateTransform attributeName="transform" type="translate" repeatCount="indefinite" begin="0" dur="1" keyTimes="0;1" values="0,300;0,375"/><polygon points="0,0 800,0"/></g></g></g><g stroke="#ff00ff" stroke-opacity="1" stroke-width="2"><g fill="#000000" fill-opacity="0"><g transform="translate(0,300)"><animateTransform attributeName="transform" type="translate" repeatCount="indefinite" begin="0" dur="1" keyTimes="0;1" values="0,300;0,375"/><polygon points="0,75 800,75"/></g></g></g><g stroke="#ff00ff" stroke-opacity="1" stroke-width="2"><g fill="#000000" fill-opacity="0"><g transform="translate(0,300)"><animateTransform attributeName="transform" type="translate" repeatCount="indefinite" begin="0" dur="1" keyTimes="0;1" values="0,300;0,375"/><polygon points="0,150 800,150"/></g></g></g><g stroke="#ff00ff" stroke-opacity="1" stroke-width="2"><g fill="#000000" fill-opacity="0"><g transform="translate(0,300)"><animateTransform attributeName="transform" type="translate" repeatCount="indefinite" begin="0" dur="1" keyTimes="0;1" values="0,300;0,375"/><polygon points="0,225 800,225"/></g></g></g><g stroke="#ff00ff" stroke-opacity="1" stroke-width="2"><g fill="#000000" fill-opacity="0"><g transform="translate(0,300)"><animateTransform attributeName="transform" type="translate" repeatCount="indefinite" begin="0" dur="1" keyTimes="0;1" values="0,300;0,375"/><polygon points="0,300 800,300"/></g></g></g><g fill="#000000" fill-opacity="0"><g stroke="#000000" stroke-opacity="1" stroke-width="1"><rect width="800" height="600"/></g></g></svg>
